<svg xmlns="http://www.w3.org/2000/svg" width="62px" height="62px" viewBox="17.5 17.5 62 62">
  <path fill="#C6C6C5" d="M55.886 58.828c-2.142 1.485-4.653 2.272-7.265 2.274l-.17-.004c-.35-.002-.69-.02-1.04-.05l-.42-.053c-.27-.034-.54-.073-.8-.122-.11-.02-.23-.05-.34-.076l-.14-.03c-.25-.062-.51-.122-.76-.197l-.36-.12c-.28-.097-.57-.196-.86-.31l-.08.184-.11-.268c-.32-.146-.65-.298-1.01-.487-1.06-.59-2.03-1.31-2.93-2.2-.26-.27-.51-.54-.75-.83l-.15.13.01-.32c-1.58-1.97-2.51-4.31-2.72-6.8 2.14-.06 4.03-.21 4.21-.57.07-.13.22-.43-1.46-3.14-.78-1.26-4.14-6.35-5.023-6.35-.96.03-5 6.48-5.95 8.4-.45.92-.41 1.11-.32 1.23.21.28 2.19.39 4.07.43.2 3.08 1.215 6.04 2.984 8.58l.2-.06-.13.19c.15.21.31.41.47.6l.4.5c.31.37.646.73.985 1.08l.1.1c1.14 1.13 2.44 2.1 3.854 2.87l.12.07c.41.21.82.41 1.25.6l.31.14c.365.15.736.27 1.19.43l.456.15c.33.1.66.17 1 .26l.156.03c.17.04.344.08.62.134.06.014.12.03.176.04.25.043.51.072.77.1l.53.07c.574.056 1.15.09 1.716.09 3.514 0 6.91-1.066 9.82-3.096 1.01-.704 1.26-2.096.55-3.1-.683-.97-2.14-1.23-3.12-.546zm13.734-10.61c-.173-.34-1.882-.495-3.88-.56-.156-3.175-1.18-6.215-2.987-8.818l-.168.112.092-.25c-.23-.33-.48-.635-.754-.965l-.086-.114c-1.746-2.104-3.902-3.71-6.414-4.79l-.208-.09c-.397-.16-.803-.305-1.21-.44l-.154-.052c-.09-.03-.18-.06-.28-.09-.35-.1-.71-.19-1.08-.27l-.16-.04c-.14-.03-.29-.07-.44-.1l-.29-.06c-.17-.03-.34-.05-.52-.06l-.85-.1c-.46-.04-.91-.06-1.47-.07h-.18c-3.52.01-6.92 1.07-9.81 3.08-.49.34-.81.85-.92 1.44-.1.59.03 1.18.37 1.67.69.97 2.15 1.23 3.13.55 2.14-1.49 4.65-2.272 7.38-2.272h.008c.373.003.75.02 1.11.056l.336.04c.306.04.6.08.9.14l.39.09c.29.06.58.13.86.21l.267.09c.325.11.64.22 1.05.39 1.846.79 3.503 2.02 4.81 3.6 1.68 2.03 2.64 4.49 2.82 7.125-1.96.03-4.15.133-4.38.44-.09.12-.13.305.32 1.223.954 1.93 4.99 8.384 5.95 8.41h.01c.885 0 4.17-4.98 5-6.31 1.704-2.74 1.55-3.04 1.48-3.177z"/>
</svg>
